<svg width="48" height="48" viewBox="0 0 48 48" fill="none" xmlns="http://www.w3.org/2000/svg">
<path fill-rule="evenodd" clip-rule="evenodd" d="M25.5378 18.0278C23.3883 18.9268 19.0923 20.7875 12.6499 23.61C11.6037 24.0283 11.0557 24.4375 11.0058 24.8377C10.9215 25.514 11.7637 25.7803 12.9106 26.1429C13.0666 26.1922 13.2283 26.2433 13.394 26.2975C14.5223 26.6663 16.0402 27.0978 16.8292 27.1149C17.545 27.1305 18.3439 26.8338 19.2258 26.2248C25.2452 22.139 28.3524 20.0738 28.5475 20.0293C28.6851 19.9979 28.8759 19.9584 29.0051 20.0739C29.1343 20.1894 29.1216 20.4081 29.1079 20.4668C29.0245 20.8244 25.7184 23.9151 24.0076 25.5145C23.4742 26.0131 23.0959 26.3668 23.0185 26.4476C22.8453 26.6285 22.6687 26.7997 22.499 26.9642C21.4507 27.9803 20.6646 28.7423 22.5425 29.9867C23.445 30.5847 24.1671 31.0792 24.8876 31.5725C25.6743 32.1113 26.4591 32.6487 27.4744 33.3179C27.7331 33.4884 27.9801 33.6655 28.2208 33.838C29.1364 34.4944 29.959 35.0841 30.9753 34.9901C31.5658 34.9354 32.1758 34.3771 32.4856 32.7118C33.2177 28.7763 34.6568 20.2491 34.9893 16.7353C35.0185 16.4274 34.9818 16.0334 34.9524 15.8605C34.9229 15.6875 34.8614 15.4411 34.6379 15.2587C34.3731 15.0426 33.9643 14.9971 33.7815 15.0001C32.9503 15.015 31.675 15.4609 25.5378 18.0278Z" fill="#7100FF"/>
<path d="M19.8111 30.0004L17.3811 26.4904H17.2371H14.6991V30.0004H11.7831V17.4004H17.2371C18.3531 17.4004 19.3191 17.5864 20.1351 17.9584C20.9631 18.3304 21.5991 18.8584 22.0431 19.5424C22.4871 20.2264 22.7091 21.0364 22.7091 21.9724C22.7091 22.9084 22.4811 23.7184 22.0251 24.4024C21.5811 25.0744 20.9451 25.5904 20.1171 25.9504L22.9431 30.0004H19.8111ZM19.7571 21.9724C19.7571 21.2644 19.5291 20.7244 19.0731 20.3524C18.6171 19.9684 17.9511 19.7764 17.0751 19.7764H14.6991V24.1684H17.0751C17.9511 24.1684 18.6171 23.9764 19.0731 23.5924C19.5291 23.2084 19.7571 22.6684 19.7571 21.9724Z" fill="white"/>
<path d="M30.6174 30.2164C28.8174 30.2164 27.4134 29.7184 26.4054 28.7224C25.4094 27.7264 24.9114 26.3044 24.9114 24.4564V17.4004H27.8274V24.3484C27.8274 26.6044 28.7634 27.7324 30.6354 27.7324C31.5474 27.7324 32.2434 27.4624 32.7234 26.9224C33.2034 26.3704 33.4434 25.5124 33.4434 24.3484V17.4004H36.3234V24.4564C36.3234 26.3044 35.8194 27.7264 34.8114 28.7224C33.8154 29.7184 32.4174 30.2164 30.6174 30.2164Z" fill="white"/>
</svg>
