<svg width="48" height="48" viewBox="0 0 48 48" fill="none" xmlns="http://www.w3.org/2000/svg">
<path d="M19.8111 30.0004L17.3811 26.4904H17.2371H14.6991V30.0004H11.7831V17.4004H17.2371C18.3531 17.4004 19.3191 17.5864 20.1351 17.9584C20.9631 18.3304 21.5991 18.8584 22.0431 19.5424C22.4871 20.2264 22.7091 21.0364 22.7091 21.9724C22.7091 22.9084 22.4811 23.7184 22.0251 24.4024C21.5811 25.0744 20.9451 25.5904 20.1171 25.9504L22.9431 30.0004H19.8111ZM19.7571 21.9724C19.7571 21.2644 19.5291 20.7244 19.0731 20.3524C18.6171 19.9684 17.9511 19.7764 17.0751 19.7764H14.6991V24.1684H17.0751C17.9511 24.1684 18.6171 23.9764 19.0731 23.5924C19.5291 23.2084 19.7571 22.6684 19.7571 21.9724Z" fill="white"/>
<path d="M30.6174 30.2164C28.8174 30.2164 27.4134 29.7184 26.4054 28.7224C25.4094 27.7264 24.9114 26.3044 24.9114 24.4564V17.4004H27.8274V24.3484C27.8274 26.6044 28.7634 27.7324 30.6354 27.7324C31.5474 27.7324 32.2434 27.4624 32.7234 26.9224C33.2034 26.3704 33.4434 25.5124 33.4434 24.3484V17.4004H36.3234V24.4564C36.3234 26.3044 35.8194 27.7264 34.8114 28.7224C33.8154 29.7184 32.4174 30.2164 30.6174 30.2164Z" fill="white"/>
</svg>
