<svg width="48" height="48" viewBox="0 0 48 48" fill="none" xmlns="http://www.w3.org/2000/svg">
<path d="M17.2404 30.2164C15.4404 30.2164 14.0364 29.7184 13.0284 28.7224C12.0324 27.7264 11.5344 26.3044 11.5344 24.4564V17.4004H14.4504V24.3484C14.4504 26.6044 15.3864 27.7324 17.2584 27.7324C18.1704 27.7324 18.8664 27.4624 19.3464 26.9224C19.8264 26.3704 20.0664 25.5124 20.0664 24.3484V17.4004H22.9464V24.4564C22.9464 26.3044 22.4424 27.7264 21.4344 28.7224C20.4384 29.7184 19.0404 30.2164 17.2404 30.2164Z" fill="white"/>
<path d="M33.8623 27.3004H28.0123L26.8963 30.0004H23.9083L29.5243 17.4004H32.4043L38.0383 30.0004H34.9783L33.8623 27.3004ZM32.9443 25.0864L30.9463 20.2624L28.9483 25.0864H32.9443Z" fill="white"/>
</svg>
