<svg width="48" height="48" viewBox="0 0 48 48" fill="none" xmlns="http://www.w3.org/2000/svg">
<path fill-rule="evenodd" clip-rule="evenodd" d="M24.007 17.8371C20.6019 17.8371 17.8394 20.5986 17.8394 24.0023C17.8394 27.4061 20.6019 30.1676 24.007 30.1676C27.4122 30.1676 30.1747 27.4061 30.1747 24.0023C30.1747 20.5986 27.4122 17.8371 24.007 17.8371ZM24.007 28.0016C21.7979 28.0016 20.0063 26.2106 20.0063 24.0023C20.0063 21.7941 21.7979 20.0031 24.007 20.0031C26.2161 20.0031 28.0078 21.7941 28.0078 24.0023C28.0078 26.2106 26.2161 28.0016 24.007 28.0016Z" fill="white"/>
<path d="M30.4186 19.0327C31.2113 19.0327 31.8585 18.3904 31.8585 17.5933C31.8585 16.801 31.2113 16.154 30.4186 16.154C29.6259 16.154 28.9787 16.7963 28.9787 17.5933C28.9787 18.3857 29.6213 19.0327 30.4186 19.0327Z" fill="white"/>
<path fill-rule="evenodd" clip-rule="evenodd" d="M24.007 12C20.7473 12 20.3393 12.0141 19.0588 12.0703C17.7831 12.1266 16.906 12.3329 16.1462 12.6282C15.3535 12.9377 14.6828 13.3456 14.0168 14.016C13.3461 14.6818 12.938 15.3522 12.6285 16.1399C12.333 16.9041 12.1266 17.7761 12.0704 19.0514C12.0141 20.336 12 20.7439 12 24.0023C12 27.2608 12.0141 27.6687 12.0704 28.9486C12.1266 30.2239 12.333 31.1006 12.6285 31.8601C12.938 32.6525 13.3461 33.3229 14.0168 33.9887C14.6828 34.6544 15.3535 35.067 16.1415 35.3718C16.906 35.6671 17.7784 35.8734 19.0541 35.9297C20.3346 35.9859 20.7426 36 24.0023 36C27.2621 36 27.6701 35.9859 28.9506 35.9297C30.2263 35.8734 31.1034 35.6671 31.8632 35.3718C32.6512 35.067 33.3219 34.6544 33.9879 33.9887C34.6539 33.3229 35.0666 32.6525 35.3715 31.8648C35.667 31.1006 35.8734 30.2286 35.9296 28.9533C35.9859 27.6734 36 27.2655 36 24.007C36 20.7486 35.9859 20.3407 35.9296 19.0608C35.8734 17.7855 35.667 16.9088 35.3715 16.1492C35.076 15.3522 34.668 14.6818 33.9973 14.016C33.3312 13.3503 32.6605 12.9377 31.8726 12.6329C31.1081 12.3376 30.2357 12.1313 28.9599 12.075C27.6748 12.0141 27.2668 12 24.007 12ZM24.007 14.1614C27.2152 14.1614 27.5951 14.1754 28.8568 14.2317C30.0293 14.2833 30.6625 14.4802 31.0846 14.6443C31.6428 14.8599 32.0461 15.1225 32.4636 15.5398C32.8857 15.9617 33.1436 16.3602 33.3594 16.9181C33.5235 17.3401 33.7205 17.9777 33.7721 19.1451C33.8284 20.411 33.8425 20.7908 33.8425 23.993C33.8425 27.1998 33.8284 27.5796 33.7721 28.8408C33.7205 30.0129 33.5235 30.6458 33.3594 31.0678C33.1436 31.6257 32.881 32.0289 32.4636 32.4462C32.0414 32.8681 31.6428 33.126 31.0846 33.3417C30.6625 33.5058 30.0246 33.7027 28.8568 33.7542C27.5904 33.8105 27.2105 33.8246 24.007 33.8246C20.7989 33.8246 20.419 33.8105 19.1573 33.7542C17.9848 33.7027 17.3516 33.5058 16.9295 33.3417C16.3713 33.126 15.9679 32.8635 15.5505 32.4462C15.1284 32.0242 14.8704 31.6257 14.6547 31.0678C14.4905 30.6458 14.2935 30.0082 14.2419 28.8408C14.1857 27.5749 14.1716 27.1952 14.1716 23.993C14.1716 20.7861 14.1857 20.4063 14.2419 19.1451C14.2935 17.973 14.4905 17.3401 14.6547 16.9181C14.8704 16.3602 15.1331 15.957 15.5505 15.5398C15.9726 15.1178 16.3713 14.8599 16.9295 14.6443C17.3516 14.4802 17.9894 14.2833 19.1573 14.2317C20.419 14.1754 20.7989 14.1614 24.007 14.1614Z" fill="white"/>
</svg>
