<svg width="48" height="48" viewBox="0 0 48 48" fill="none" xmlns="http://www.w3.org/2000/svg">
<circle cx="24" cy="24" r="24" fill="#260056"/>
<path d="M28.9401 12H24.7968V28.3478C24.7968 30.2957 23.2032 31.8957 21.2201 31.8957C19.2369 31.8957 17.6433 30.2957 17.6433 28.3478C17.6433 26.4348 19.2015 24.8695 21.1139 24.8V20.6957C16.8997 20.7652 13.5 24.1391 13.5 28.3478C13.5 32.5913 16.9705 36 21.2555 36C25.5405 36 29.0109 32.5565 29.0109 28.3478V19.9652C30.5691 21.0783 32.4814 21.7391 34.5 21.7739V17.6696C31.3837 17.5652 28.9401 15.0609 28.9401 12Z" fill="white"/>
</svg>
