<svg width="48" height="48" viewBox="0 0 48 48" fill="none" xmlns="http://www.w3.org/2000/svg">
<path fill-rule="evenodd" clip-rule="evenodd" d="M25.5378 18.0278C23.3883 18.9268 19.0923 20.7875 12.6499 23.61C11.6037 24.0283 11.0557 24.4375 11.0058 24.8377C10.9215 25.514 11.7637 25.7803 12.9106 26.1429C13.0666 26.1922 13.2283 26.2433 13.394 26.2975C14.5223 26.6663 16.0402 27.0978 16.8292 27.1149C17.545 27.1305 18.3439 26.8338 19.2258 26.2248C25.2452 22.139 28.3524 20.0738 28.5475 20.0293C28.6851 19.9979 28.8759 19.9584 29.0051 20.0739C29.1343 20.1894 29.1216 20.4081 29.1079 20.4668C29.0245 20.8244 25.7184 23.9151 24.0076 25.5145C23.4742 26.0131 23.0959 26.3668 23.0185 26.4476C22.8453 26.6285 22.6687 26.7997 22.499 26.9642C21.4507 27.9803 20.6646 28.7423 22.5425 29.9867C23.445 30.5847 24.1671 31.0792 24.8876 31.5725C25.6743 32.1113 26.4591 32.6487 27.4744 33.3179C27.7331 33.4884 27.9801 33.6655 28.2208 33.838C29.1364 34.4944 29.959 35.0841 30.9753 34.9901C31.5658 34.9354 32.1758 34.3771 32.4856 32.7118C33.2177 28.7763 34.6568 20.2491 34.9893 16.7353C35.0185 16.4274 34.9818 16.0334 34.9524 15.8605C34.9229 15.6875 34.8614 15.4411 34.6379 15.2587C34.3731 15.0426 33.9643 14.9971 33.7815 15.0001C32.9503 15.015 31.675 15.4609 25.5378 18.0278Z" fill="#7100FF"/>
<path d="M17.2404 30.2164C15.4404 30.2164 14.0364 29.7184 13.0284 28.7224C12.0324 27.7264 11.5344 26.3044 11.5344 24.4564V17.4004H14.4504V24.3484C14.4504 26.6044 15.3864 27.7324 17.2584 27.7324C18.1704 27.7324 18.8664 27.4624 19.3464 26.9224C19.8264 26.3704 20.0664 25.5124 20.0664 24.3484V17.4004H22.9464V24.4564C22.9464 26.3044 22.4424 27.7264 21.4344 28.7224C20.4384 29.7184 19.0404 30.2164 17.2404 30.2164Z" fill="white"/>
<path d="M33.8623 27.3004H28.0123L26.8963 30.0004H23.9083L29.5243 17.4004H32.4043L38.0383 30.0004H34.9783L33.8623 27.3004ZM32.9443 25.0864L30.9463 20.2624L28.9483 25.0864H32.9443Z" fill="white"/>
</svg>
